<?xml version="1.0" encoding="UTF-8" standalone="no"?>
<!-- Uploaded to: SVG Repo, www.svgrepo.com, Generator: SVG Repo Mixer Tools -->

<svg
   height="128"
   width="127.99999"
   version="1.1"
   id="Capa_1"
   viewBox="0 0 4.0782399 4.07824"
   xml:space="preserve"
   xmlns="http://www.w3.org/2000/svg"
   xmlns:svg="http://www.w3.org/2000/svg"><defs
   id="defs3" />
<g
   id="g3"
   transform="matrix(0.15999852,0,0,0.15999852,-6.8355629e-5,-4.7000009e-8)"
   style="fill:#ffffff">
	<path
   style="fill:#ffffff"
   d="m 0.293,22.117 2.329,2.757 c 0,0 0.822,1.163 1.413,0.291 0.591,-0.87 4.134,-8.052 4.134,-8.052 0,0 0.355,-0.586 0.604,0.461 0.249,1.047 2.294,6.113 2.294,6.113 0,0 0.309,0.427 0.68,0.112 0.372,-0.312 1.86,-1.567 1.86,-1.567 0,0 0.502,-0.159 -0.018,-1.151 -0.521,-0.995 -2.43,-5.521 -2.43,-5.521 0,0 -0.279,-0.58 0.125,-0.92 0.403,-0.339 0.924,-0.728 0.924,-0.728 0,0 0.232,-0.479 0.871,0.026 0.638,0.504 2.468,2.357 5.287,3.054 2.818,0.699 5.285,0.793 5.285,0.793 0,0 0.604,0.022 0.689,-1.009 0.088,-1.026 0.037,-2.47 0.037,-2.47 0,0 0.058,-0.688 -0.547,-0.708 -0.603,-0.021 -1.627,0.209 -2.918,-0.189 -1.291,-0.396 -4.208,-2.53 -4.208,-2.53 0,0 -0.468,-0.367 -0.034,-0.735 0.434,-0.366 3.471,-2.928 3.471,-2.928 0,0 0.521,-0.389 0.207,-0.761 -0.313,-0.371 -0.47,-0.557 -0.47,-0.557 L 25.394,1.24 24.346,0 18.83,4.656 18.377,4.247 c 0,0 -0.403,-0.351 -0.744,-0.063 -0.34,0.284 -3.9,3.236 -3.9,3.236 0,0 -1.003,-1.061 -1.746,-0.434 -0.743,0.627 -5.266,4.449 -5.266,4.449 0,0 -0.197,0.271 -0.042,0.83 0.154,0.561 0.437,0.957 0.158,1.193 -0.278,0.234 -1.735,1.465 -1.735,1.465 0,0 -0.407,0.397 -0.356,1.151 0.052,0.752 -0.364,1.578 -1.169,2.26 -0.804,0.68 -3.125,2.586 -3.125,2.586 0,0 -0.681,0.577 -0.159,1.197 z"
   id="path1" />
	<path
   style="fill:#ffffff"
   d="m 21.174,3.157 c 0,0 -1.847,-2.189 -2.171,-2.571 -0.324,-0.384 -1.266,-0.722 -1.381,0.625 -0.129,1.551 -0.273,3.638 -0.273,3.638 l 1.611,0.053 c 0,0 -0.079,-0.855 -0.195,-1.284 -0.146,-0.534 0.107,-0.796 0.396,-0.452 0.289,0.339 0.832,0.979 0.832,0.979 z"
   id="path2" />
	<path
   style="fill:#ffffff"
   d="m 11.204,16.285 c 0,0 0.512,-0.432 0.921,-0.777 0.409,-0.345 0.805,-1.12 0.464,-2.146 -0.34,-1.025 1,0.147 1,0.147 0,0 0.703,1.612 -0.496,2.623 -1.204,1.019 -1.736,1.423 -1.736,1.423 z"
   id="path3" />
</g>
</svg>
