<?xml version="1.0" encoding="UTF-8" standalone="no"?>
<!-- Uploaded to: SVG Repo, www.svgrepo.com, Generator: SVG Repo Mixer Tools -->

<svg
   width="128"
   height="128"
   viewBox="0 0 3.84 3.84"
   fill="none"
   version="1.1"
   id="svg2"
   xmlns="http://www.w3.org/2000/svg"
   xmlns:svg="http://www.w3.org/2000/svg">
  <defs
     id="defs2" />
  <g
     id="g2"
     transform="matrix(0.192,0,0,0.192,-0.384,-0.192)"
     style="fill:#ffffff">
    <path
       d="M 16.2857,20 C 19.4416,20 22,17.4717 22,14.3529 22,11.8811 20.393,9.78024 18.1551,9.01498 17.8371,6.19371 15.4159,4 12.4762,4 9.32028,4 6.7619,6.52827 6.7619,9.64706 c 0,0.68984 0.12516,1.35074 0.35426,1.96184 C 6.8475,11.5567 6.56983,11.5294 6.28571,11.5294 3.91878,11.5294 2,13.4256 2,15.7647 2,18.1038 3.91878,20 6.28571,20 Z"
       fill="#1c274c"
       id="path1"
       style="fill:#ffffff" />
    <path
       d="M 9.9395,2.9549 C 9.11445,2.35431 8.0986,2 7,2 4.23858,2 2,4.23858 2,7 2,8.45451 2.62107,9.76396 3.61248,10.6776 4.12743,10.4112 4.68736,10.2195 5.27727,10.1165 5.26708,9.9612 5.2619,9.80468 5.2619,9.64706 5.2619,6.57385 7.21349,3.96993 9.9395,2.9549 Z"
       fill="#1c274c"
       id="path2"
       style="fill:#ffffff" />
  </g>
</svg>
