<?xml version="1.0" encoding="UTF-8" standalone="no"?>
<!-- Uploaded to: SVG Repo, www.svgrepo.com, Generator: SVG Repo Mixer Tools -->

<svg
   height="128"
   width="128"
   version="1.1"
   id="_x32_"
   viewBox="0 0 81.92 81.92"
   xml:space="preserve"
   xmlns="http://www.w3.org/2000/svg"
   xmlns:svg="http://www.w3.org/2000/svg"><defs
   id="defs2" />
<style
   type="text/css"
   id="style1">
	.st0{fill:#000000;}
</style>
<g
   id="g2"
   transform="matrix(0.16,0,0,0.16,2.5049843e-5,0)"
   style="fill:#ffffff">
	<path
   class="st0"
   d="m 458.159,404.216 c -18.93,-33.65 -49.934,-71.764 -100.409,-93.431 -28.868,20.196 -63.938,32.087 -101.745,32.087 -37.828,0 -72.898,-11.89 -101.767,-32.087 C 103.764,332.452 72.759,370.567 53.84,404.216 28.731,448.848 48.417,512 91.842,512 c 43.426,0 164.164,0 164.164,0 0,0 120.726,0 164.153,0 43.424,0 63.11,-63.152 38,-107.784 z"
   id="path1"
   style="fill:#ffffff" />
	<path
   class="st0"
   d="m 256.005,300.641 c 74.144,0 134.231,-60.108 134.231,-134.242 V 134.241 C 390.236,60.108 330.149,0 256.005,0 181.85,0 121.753,60.108 121.753,134.242 V 166.4 c 0,74.133 60.098,134.241 134.252,134.241 z"
   id="path2"
   style="fill:#ffffff" />
</g>
</svg>
