<?xml version="1.0" encoding="UTF-8" standalone="no"?>
<!-- Uploaded to: SVG Repo, www.svgrepo.com, Generator: SVG Repo Mixer Tools -->

<svg
   width="128"
   height="128"
   viewBox="0 0 3.84 3.84"
   fill="none"
   version="1.1"
   id="svg1"
   xmlns="http://www.w3.org/2000/svg"
   xmlns:svg="http://www.w3.org/2000/svg">
  <defs
     id="defs1" />
  <path
     fill-rule="evenodd"
     clip-rule="evenodd"
     d="m 0.00669155,2.2649523 v 1.2334483 c 0,0.079207 0.064284,0.143491 0.1434909,0.143491 h 0.3087926 A 0.14349097,0.14349097 0 0 0 0.60055275,3.5219331 L 0.67631605,3.0679277 H 3.1634927 l 0.075572,0.4540054 a 0.14349097,0.14349097 0 0 0 0.1415779,0.1199585 h 0.3089838 a 0.14349097,0.14349097 0 0 0 0.143491,-0.143491 V 2.2649523 A 1.1391269,1.1391269 0 0 0 3.6417959,1.6330181 L 3.4925653,1.4091721 a 0.38149465,0.38149465 0 0 1 -0.034055,-0.063136 h 0.1901734 a 0.14349097,0.14349097 0 0 0 0.1283766,-0.079398 l 0.04783,-0.095661 A 0.14349097,0.14349097 0 0 0 3.6967051,0.9633935 H 3.3739462 L 3.3146365,0.6676108 A 0.47830322,0.47830322 0 0 0 2.9539959,0.2956823 C 2.6742842,0.230633 2.3295233,0.1981084 1.9199043,0.1981084 c -0.4098102,0 -0.7543798,0.0325246 -1.03409145,0.0975739 a 0.47830322,0.47830322 0 0 0 -0.360832,0.3719285 l -0.05931,0.2957827 h -0.322376 a 0.14349097,0.14349097 0 0 0 -0.1281852,0.2075836 l 0.04783,0.095661 a 0.14349097,0.14349097 0 0 0 0.1281853,0.079398 h 0.1903647 a 0.38245125,0.38245125 0 0 1 -0.034055,0.063136 l -0.149422,0.223846 C 0.07327135,1.8201303 0.00669155,2.0399584 0.00669155,2.2649523 Z M 3.0603706,1.3468014 a 0.76528515,0.76528515 0 0 0 0.065049,0.1907473 H 0.71438895 c 0.0300374,-0.060266 0.0518481,-0.1243588 0.0650492,-0.1907473 l 0.1209151,-0.6040013 a 0.09566064,0.09566064 0 0 1 0.072128,-0.074615 C 1.2208162,0.6107891 1.5372616,0.5807511 1.9199042,0.5807511 c 0.3826426,0 0.699088,0.029846 0.947423,0.087625 a 0.09566064,0.09566064 0 0 1 0.072319,0.074424 z M 0.67631605,2.4939638 a 0.28698193,0.28698193 0 1 0 0,-0.5739638 0.28698193,0.28698193 0 0 0 0,0.5739638 z M 3.4504747,2.2069819 a 0.28698193,0.28698193 0 1 1 -0.5739638,0 0.28698193,0.28698193 0 0 1 0.5739638,0 z"
     fill="#000000"
     id="path1"
     style="fill:#ffffff;stroke-width:0.191321" />
</svg>
